<svg width="499" height="443" viewBox="0 0 499 443" fill="none" xmlns="http://www.w3.org/2000/svg">
<path d="M160.483 237.049L136.543 229.844L160.483 237.049ZM246.022 14.1669C239.487 2.00433 224.329 -2.5575 212.167 3.97775L13.967 110.476C1.80448 117.011 -2.75734 132.168 3.7779 144.331C10.3131 156.493 25.4707 161.055 37.6332 154.52L213.811 59.8553L308.476 236.033C315.011 248.195 330.168 252.757 342.331 246.222C354.494 239.687 359.055 224.529 352.52 212.367L246.022 14.1669ZM338.354 410.364L330.531 386.62L338.354 410.364ZM480.823 389.744C493.937 385.424 501.065 371.29 496.744 358.177C492.424 345.063 478.29 337.935 465.177 342.256L480.823 389.744ZM184.422 244.254L247.939 33.2048L200.061 18.7952L136.543 229.844L184.422 244.254ZM346.178 434.108L480.823 389.744L465.177 342.256L330.531 386.62L346.178 434.108ZM136.543 229.844C98.0752 357.662 219.401 475.88 346.178 434.108L330.531 386.62C242.171 415.733 157.611 333.339 184.422 244.254L136.543 229.844Z" fill="url(#paint0_linear_1584_2852)"/>
<defs>
<linearGradient id="paint0_linear_1584_2852" x1="487" y1="358" x2="262.5" y2="101.5" gradientUnits="userSpaceOnUse">
<stop stop-color="#C5E1EF"/>
<stop offset="0.526042" stop-color="#FFF8D3"/>
<stop offset="1" stop-color="white"/>
</linearGradient>
</defs>
</svg>
