<svg width="2000" height="2000" viewBox="0 0 20 20" fill="none" xmlns="http://www.w3.org/2000/svg">
<path d="M0.0347008 9.5893L0.0144086 9.91397C0.0062918 10.0235 -0.00182505 10.1291 0.0062918 10.2386L0.0265839 10.888C0.0955772 11.7524 0.24168 12.6209 0.542004 13.4407C0.667815 13.8588 0.866678 14.2484 1.04525 14.6461C1.13859 14.845 1.26035 15.0235 1.36586 15.2143C1.4795 15.401 1.5769 15.5917 1.72301 15.7703L2.04768 16.2086L2.21002 16.4237L2.37641 16.6063L2.70514 16.9675L2.78631 17.0568L2.8269 17.1014L2.84719 17.1258L2.87154 17.1542L2.8756 17.1583L2.88372 17.1623L2.89589 17.1745L3.09069 17.349C3.35449 17.5763 3.60206 17.8279 3.89426 18.0227C4.17835 18.2256 4.45433 18.4448 4.76277 18.6071C5.96406 19.3255 7.31552 19.7759 8.69944 19.9342C10.0793 20.0925 11.4957 19.9667 12.8147 19.5406L13.3017 19.362C13.464 19.3011 13.6304 19.2524 13.7846 19.1712L14.2514 18.948L14.4868 18.8344C14.5639 18.7938 14.6369 18.7451 14.71 18.7005L15.1523 18.4326C15.2254 18.388 15.3025 18.3474 15.3715 18.2946L15.5866 18.1363C15.8666 17.9212 16.171 17.7102 16.3902 17.487C17.3479 16.7281 18.184 15.754 18.7927 14.6502C19.4056 13.5463 19.7952 12.3084 19.9372 11.0382C20.0793 9.76787 19.9697 8.46511 19.6125 7.22729L19.3 6.31415C19.1702 6.01788 19.0322 5.72568 18.8983 5.43347C18.744 5.14938 18.5736 4.87341 18.4113 4.59743C18.2286 4.32146 18.0216 4.05361 17.8228 3.78575L17.7457 3.68429L17.6726 3.59906L17.5225 3.43267L17.2221 3.10393L17.1491 3.02277L17.1126 2.98218L17.076 2.9416L17.0639 2.92942L17.0395 2.90913L16.8609 2.74679L16.4997 2.42212L16.3212 2.25978C16.2603 2.20702 16.1913 2.16238 16.1264 2.11368L15.7367 1.82553C15.4851 1.62261 15.1929 1.47651 14.9169 1.31011C13.7928 0.672938 12.5468 0.258978 11.2684 0.0885244C9.99002 -0.0819294 8.6832 -0.00481935 7.43321 0.307679C7.27899 0.348264 7.11665 0.376673 6.96649 0.429432L6.50789 0.587711C6.35773 0.644529 6.19945 0.689171 6.05335 0.754106L5.61504 0.952969C5.46893 1.02196 5.31877 1.08284 5.17673 1.15995L4.75871 1.40345L4.34069 1.64696L3.93079 1.93917C3.5006 2.22326 3.14751 2.77114 3.05011 2.98624C2.87966 3.41237 3.37884 3.16481 4.07689 2.73868C5.25789 2.06498 6.62558 1.56173 8.09473 1.35475C8.27736 1.31823 8.46405 1.32229 8.65074 1.30199L8.93077 1.27764L9.06876 1.26547H9.2108C9.39749 1.26547 9.58823 1.26547 9.77492 1.26547H9.91697L10.059 1.27764L10.3431 1.30199C10.7246 1.31823 11.098 1.3994 11.4754 1.46433C11.6661 1.49274 11.8447 1.55767 12.0314 1.60232C12.214 1.65508 12.4048 1.6916 12.5834 1.76465C13.464 2.04469 14.2798 2.50329 15.0143 3.05117C15.1929 3.19322 15.3877 3.31903 15.5501 3.48543L15.8017 3.72081L15.9275 3.83851L15.9924 3.89533L16.0249 3.92374C15.2416 4.24841 14.4949 4.78412 13.809 5.40506C11.9543 7.09337 10.059 8.73703 8.37071 10.612C8.13938 10.8231 7.90805 11.03 7.67672 11.2411C6.23192 12.5925 4.81958 13.9724 3.54524 15.4821C3.51683 15.5146 3.48842 15.5511 3.46407 15.5836C3.1678 15.2386 2.89995 14.8693 2.66862 14.4797L2.3967 14.0252L2.17349 13.5463L2.05985 13.3068C2.02333 13.2256 1.99898 13.1404 1.97057 13.0593L1.792 12.5601C1.60125 11.8823 1.44297 11.1843 1.41862 10.474C1.3821 10.121 1.40645 9.76381 1.41457 9.41073C1.41051 9.23216 1.45109 9.05764 1.46732 8.87907C1.49573 8.70456 1.49979 8.52599 1.54038 8.35148C1.6256 8.00651 1.6743 7.64937 1.80012 7.31658C1.85693 7.14613 1.90563 6.97567 1.96651 6.80928L2.17755 6.31821C2.81472 4.82065 3.76439 3.76952 3.39508 3.57065C3.2368 3.49354 2.89995 3.64776 2.43729 4.0049C2.22625 4.19971 1.98274 4.44727 1.73112 4.75166C1.61749 4.90993 1.49979 5.08039 1.37804 5.26302C1.31716 5.35636 1.25223 5.44565 1.19947 5.54711C1.14671 5.64857 1.09801 5.75409 1.04119 5.8596C0.635348 6.61853 0.387784 7.45051 0.192979 8.2906C0.136161 8.72891 0.0468761 9.15505 0.0347008 9.5893ZM4.44215 16.3425C5.22137 15.6648 6.01276 14.9829 6.73516 14.2443C7.90399 13.0552 9.02005 11.8214 10.1605 10.608C12.5346 8.87502 14.4665 6.6023 16.6012 4.57714L16.6499 4.63396C16.6905 4.6786 16.7148 4.72325 16.7473 4.77195L16.938 5.04386L17.1288 5.31172C17.1897 5.40506 17.2424 5.51058 17.2992 5.60798L17.4697 5.90425C17.5265 6.00165 17.5874 6.09905 17.628 6.20863L17.9039 6.83363C17.9811 7.04872 18.046 7.26382 18.1231 7.47892C18.3828 8.35148 18.5087 9.26056 18.4965 10.1656C18.4802 11.0747 18.3057 11.9716 18.0176 12.8279L17.9039 13.1485L17.8471 13.3068L17.7741 13.461L17.4859 14.0739L17.141 14.6583C17.1126 14.707 17.0841 14.7557 17.0557 14.8044L16.9543 14.9424L16.7514 15.2143L16.5525 15.4902L16.3252 15.7419L16.0979 15.9935L15.9843 16.1193L15.9721 16.1315L15.9437 16.1558L15.8747 16.2167L15.3268 16.7159C15.1483 16.8579 14.9778 16.9756 14.8033 17.1096C14.0769 17.6169 13.2489 18.043 12.3845 18.323C11.5119 18.5584 10.611 18.6558 9.70999 18.6274C7.71324 18.5706 5.78143 17.763 4.30416 16.4521C4.35287 16.4156 4.39751 16.3831 4.44215 16.3425Z" fill="url(#paint0_linear_1364_2879)"/>
<defs>
<linearGradient id="paint0_linear_1364_2879" x1="0.00292953" y1="5.63266" x2="20.8784" y2="9.26855" gradientUnits="userSpaceOnUse">
<stop stop-color="#F9F871"/>
<stop offset="1" stop-color="#D78D1F"/>
</linearGradient>
</defs>
</svg>
